<?xml version="1.0" encoding="utf-8"?>
<!-- Generator: Adobe Illustrator 24.1.1, SVG Export Plug-In . SVG Version: 6.00 Build 0)  -->
<svg version="1.1" id="yellowCheck" xmlns="http://www.w3.org/2000/svg" xmlns:xlink="http://www.w3.org/1999/xlink" x="0px"
	 y="0px" viewBox="0 0 30 30" style="enable-background:new 0 0 30 30;" xml:space="preserve">
<style type="text/css">
	.st0{fill:#FFB600;}
	.st1{fill:#FFF176;}
	.st2{fill:#B6AB53;}
	.st3{fill:#FFFFFF;stroke:#000000;stroke-miterlimit:10;}
</style>
<g>
	<path class="st0" d="M30,3.6v22.7c0,2-1.6,3.6-3.6,3.6H3.6c-2,0-3.6-1.6-3.6-3.6V3.6C0,1.6,1.6,0,3.6,0h22.7C28.4,0,30,1.6,30,3.6z
		"/>
	<path class="st1" d="M27,6.5v17.1c0,1.9-1.6,3.5-3.5,3.5H6.4c-1.9,0-3.5-1.6-3.5-3.5V6.5C2.9,4.5,4.5,3,6.4,3h17.1
		C25.4,3,27,4.5,27,6.5z"/>
	<path class="st2" d="M13.8,15.1"/>
	<path class="st0" d="M7.8,23.8c-1,0-1.9-0.8-1.9-1.9c0-0.5,0.2-1,0.6-1.3L19.8,7.4c0.7-0.7,1.9-0.7,2.7,0c0.7,0.7,0.7,1.9,0,2.7
		c0,0,0,0,0,0L9.1,23.2C8.7,23.6,8.3,23.8,7.8,23.8z"/>
	<path class="st3" d="M0,0"/>
</g>
</svg>
